# xmcd
#
# Track frame offsets:
#	182
#	13342
#	27225
#	38175
#	49997
#	62397
#	74927
#	84812
#	97312
#	111897
#	125397
#	138877
#	152695
#	163817
#	176297
#	191437
#	207862
#	221977
#
# Disc length: 3168 seconds
#
# Revision: 2
# Processed by: cddbd v1.4PL0 Copyright (c) Steve Scherf et al.
# Submitted via: EasyCDDAExtractor 4.5.2.1
#
DISCID=050c5e12
DTITLE=Elmore James - Jazz and Blues Collection - CD 22
DYEAR=1900
DGENRE=Blues
TTITLE0=Dust My Broom
TTITLE1=It Hurts Me Too
TTITLE2=Coming Home
TTITLE3=Knocking At Your Door
TTITLE4=Cry For Me Baby
TTITLE5=The Sky Is Crying
TTITLE6=Bobby's Rock
TTITLE7=I Need You
TTITLE8=Stranger Blues
TTITLE9=Anna Lee
TTITLE10=Standing At The Crossroads
TTITLE11=My Bleeding Heart
TTITLE12=Look On Yonder Wall
TTITLE13=Mean Mistreatin' Mama
TTITLE14=Everyday I Have The Blues
TTITLE15=I Gotta Go Now
TTITLE16=Hand In Hand
TTITLE17=I Believe
EXTD=ID3G:   0
EXTT0=
EXTT1=
EXTT2=
EXTT3=
EXTT4=
EXTT5=
EXTT6=
EXTT7=
EXTT8=
EXTT9=
EXTT10=
EXTT11=
EXTT12=
EXTT13=
EXTT14=
EXTT15=
EXTT16=
EXTT17=
PLAYORDER=
